<mxfile host="65bd71144e">
    <diagram id="lbzP6t553hCnyogFw0_A" name="Page-1">
        <mxGraphModel dx="616" dy="513" grid="1" gridSize="10" guides="1" tooltips="1" connect="1" arrows="1" fold="1" page="1" pageScale="1" pageWidth="850" pageHeight="1100" math="0" shadow="0">
            <root>
                <mxCell id="0"/>
                <mxCell id="1" parent="0"/>
                <mxCell id="2" value="HEADER COMPONENT" style="rounded=1;whiteSpace=wrap;html=1;fontColor=#80FF00;fontSize=18;" parent="1" vertex="1">
                    <mxGeometry x="10" y="20" width="810" height="60" as="geometry"/>
                </mxCell>
                <mxCell id="3" value="BODY" style="rounded=0;whiteSpace=wrap;html=1;fontSize=18;fontColor=#80FF00;" parent="1" vertex="1">
                    <mxGeometry x="10" y="110" width="810" height="300" as="geometry"/>
                </mxCell>
                <mxCell id="4" value="FOOTER" style="rounded=1;whiteSpace=wrap;html=1;fontSize=18;fontColor=#80FF00;" parent="1" vertex="1">
                    <mxGeometry x="10" y="430" width="810" height="70" as="geometry"/>
                </mxCell>
                <mxCell id="6" value="MENU LIST" style="rounded=1;whiteSpace=wrap;html=1;fontSize=18;fontColor=#80FF00;rotation=-90;" parent="1" vertex="1">
                    <mxGeometry x="-50" y="195" width="260" height="110" as="geometry"/>
                </mxCell>
                <mxCell id="7" value="MENU" style="rounded=0;whiteSpace=wrap;html=1;fontSize=18;fontColor=#80FF00;" parent="1" vertex="1">
                    <mxGeometry x="40" y="27.5" width="80" height="45" as="geometry"/>
                </mxCell>
                <mxCell id="8" value="LOGO" style="rounded=0;whiteSpace=wrap;html=1;fontSize=18;fontColor=#80FF00;" parent="1" vertex="1">
                    <mxGeometry x="140" y="27.5" width="60" height="45" as="geometry"/>
                </mxCell>
                <mxCell id="9" value="SEARCH" style="rounded=1;whiteSpace=wrap;html=1;fontSize=18;fontColor=#80FF00;" parent="1" vertex="1">
                    <mxGeometry x="210" y="30" width="100" height="40" as="geometry"/>
                </mxCell>
                <mxCell id="10" value="VIEW" style="rounded=0;whiteSpace=wrap;html=1;fontSize=18;fontColor=#80FF00;" parent="1" vertex="1">
                    <mxGeometry x="540" y="30" width="120" height="40" as="geometry"/>
                </mxCell>
                <mxCell id="11" value="THEME" style="rounded=1;whiteSpace=wrap;html=1;fontSize=18;fontColor=#80FF00;" parent="1" vertex="1">
                    <mxGeometry x="700" y="30" width="90" height="40" as="geometry"/>
                </mxCell>
                <mxCell id="12" value="TAKE NOTES" style="rounded=1;whiteSpace=wrap;html=1;fontSize=18;fontColor=#80FF00;" parent="1" vertex="1">
                    <mxGeometry x="180" y="135" width="550" height="60" as="geometry"/>
                </mxCell>
                <mxCell id="13" value="NOTE 1" style="whiteSpace=wrap;html=1;aspect=fixed;fontSize=18;fontColor=#80FF00;" parent="1" vertex="1">
                    <mxGeometry x="150" y="250" width="100" height="100" as="geometry"/>
                </mxCell>
                <mxCell id="14" value="NOTE 2&amp;nbsp;" style="whiteSpace=wrap;html=1;aspect=fixed;fontSize=18;fontColor=#80FF00;" parent="1" vertex="1">
                    <mxGeometry x="260" y="250" width="100" height="100" as="geometry"/>
                </mxCell>
                <mxCell id="15" value="NOTE 1" style="rounded=1;whiteSpace=wrap;html=1;fontSize=18;fontColor=#80FF00;" parent="1" vertex="1">
                    <mxGeometry x="475" y="250" width="250" height="60" as="geometry"/>
                </mxCell>
                <mxCell id="16" value="NOTE 2" style="rounded=1;whiteSpace=wrap;html=1;fontSize=18;fontColor=#80FF00;" parent="1" vertex="1">
                    <mxGeometry x="475" y="320" width="250" height="60" as="geometry"/>
                </mxCell>
                <mxCell id="17" value="GRID VIEW" style="text;html=1;strokeColor=none;fillColor=none;align=center;verticalAlign=middle;whiteSpace=wrap;rounded=0;fontSize=18;fontColor=#80FF00;" parent="1" vertex="1">
                    <mxGeometry x="190" y="210" width="120" height="30" as="geometry"/>
                </mxCell>
                <mxCell id="18" value="LIST VIEW" style="text;html=1;strokeColor=none;fillColor=none;align=center;verticalAlign=middle;whiteSpace=wrap;rounded=0;fontSize=18;fontColor=#80FF00;" parent="1" vertex="1">
                    <mxGeometry x="480" y="210" width="210" height="30" as="geometry"/>
                </mxCell>
            </root>
        </mxGraphModel>
    </diagram>
</mxfile>